<svg xmlns="http://www.w3.org/2000/svg" viewBox="0 0 32 31" width="32" height="31">
	<style>
		tspan { white-space:pre }
		.shp0 { fill: #95e1d3 } 
	</style>
	<g id="service">
		<g id="1">
			<path id="ALARM" class="shp0" d="M30.74 9.5C29.16 5.81 26.19 2.84 22.5 1.26C23.5 0.47 24.75 0 26.13 0C29.37 0 32 2.63 32 5.87C32 7.24 31.53 8.5 30.74 9.5ZM30.5 16C30.5 19.85 28.99 23.34 26.54 25.94L28.57 27.97C28.83 28.24 29 28.61 29 29.02C29 29.84 28.34 30.5 27.52 30.5C27.11 30.5 26.74 30.33 26.47 30.07L24.29 27.89C21.94 29.53 19.08 30.5 16 30.5C12.92 30.5 10.07 29.53 7.72 27.9L5.56 30.06C5.29 30.33 4.91 30.5 4.5 30.5C3.67 30.5 3 29.83 3 29C3 28.59 3.17 28.21 3.44 27.94L5.45 25.93C3.01 23.33 1.5 19.85 1.5 16C1.5 7.99 7.99 1.5 16 1.5C24.01 1.5 30.5 7.99 30.5 16ZM16 4.5C9.65 4.5 4.5 9.65 4.5 16C4.5 22.35 9.65 27.5 16 27.5C22.35 27.5 27.5 22.35 27.5 16C27.5 9.65 22.35 4.5 16 4.5ZM22 17.5L16 17.5C15.17 17.5 14.5 16.83 14.5 16L14.5 8C14.5 7.17 15.17 6.5 16 6.5C16.83 6.5 17.5 7.17 17.5 8L17.5 14.5L22 14.5C22.83 14.5 23.5 15.17 23.5 16C23.5 16.83 22.83 17.5 22 17.5ZM1.29 9.71C0.48 8.68 0 7.4 0 6C0 2.69 2.69 0 6 0C7.4 0 8.69 0.48 9.71 1.29C5.93 2.9 2.9 5.93 1.29 9.71Z" />
		</g>
	</g>
</svg>