<svg xmlns="http://www.w3.org/2000/svg" viewBox="0 0 32 32" width="32" height="32">
	<style>
		tspan { white-space:pre }
		.shp0 { fill: #95e1d3 } 
	</style>
	<g id="service">
		<g id="4">
			<path id="BOOK 2" class="shp0" d="M31.06 25.89L16.59 31.88C16.41 31.96 16.21 32 16 32C15.79 32 15.59 31.96 15.41 31.88L0.94 25.89C0.39 25.67 0 25.13 0 24.5L0 1.5C0 0.67 0.67 0 1.5 0C1.7 0 1.9 0.04 2.07 0.11L2.07 0.11L2.08 0.11C2.08 0.12 2.08 0.12 2.09 0.12L16 5.88L29.91 0.12C29.91 0.12 29.92 0.12 29.92 0.11L29.93 0.11L29.93 0.11C30.1 0.04 30.3 0 30.5 0C31.33 0 32 0.67 32 1.5L32 24.5C32 25.13 31.61 25.67 31.06 25.89ZM14.5 8.5L3 3.74L3 23.5L14.5 28.26L14.5 8.5ZM29 3.74L17.5 8.5L17.5 28.26L29 23.5L29 3.74ZM19.88 10.63L25.38 8.13L25.38 8.13C25.57 8.05 25.78 8 26 8C26.83 8 27.5 8.67 27.5 9.5C27.5 10.11 27.14 10.63 26.62 10.87L26.62 10.87L21.12 13.37L21.12 13.37C20.93 13.45 20.72 13.5 20.5 13.5C19.67 13.5 19 12.83 19 12C19 11.39 19.36 10.87 19.88 10.63ZM19.88 16.13L19.88 16.13L25.38 13.63L25.38 13.63C25.57 13.55 25.78 13.5 26 13.5C26.83 13.5 27.5 14.17 27.5 15C27.5 15.61 27.14 16.13 26.62 16.37L21.12 18.87L21.12 18.86C20.93 18.95 20.72 19 20.5 19C19.67 19 19 18.33 19 17.5C19 16.89 19.36 16.37 19.88 16.13ZM19.88 21.63L19.88 21.63L25.38 19.13L25.38 19.13C25.57 19.05 25.78 19 26 19C26.83 19 27.5 19.67 27.5 20.5C27.5 21.11 27.14 21.63 26.62 21.87L26.62 21.87L21.12 24.37L21.12 24.37C20.93 24.45 20.72 24.5 20.5 24.5C19.67 24.5 19 23.83 19 23C19 22.39 19.36 21.87 19.88 21.63ZM6 8C6.22 8 6.43 8.05 6.62 8.13L6.62 8.13L12.12 10.63L12.12 10.63C12.64 10.87 13 11.39 13 12C13 12.83 12.33 13.5 11.5 13.5C11.28 13.5 11.07 13.45 10.88 13.37L10.88 13.37L5.38 10.87L5.38 10.87C4.86 10.63 4.5 10.11 4.5 9.5C4.5 8.67 5.17 8 6 8ZM6 13.5C6.22 13.5 6.43 13.55 6.62 13.63L6.62 13.63L12.12 16.13L12.12 16.13C12.64 16.37 13 16.89 13 17.5C13 18.33 12.33 19 11.5 19C11.28 19 11.07 18.95 10.88 18.86L10.88 18.87L5.38 16.37L5.38 16.37C4.86 16.13 4.5 15.61 4.5 15C4.5 14.17 5.17 13.5 6 13.5ZM6 19C6.22 19 6.43 19.05 6.62 19.13L6.62 19.13L12.12 21.63L12.12 21.63C12.64 21.87 13 22.39 13 23C13 23.83 12.33 24.5 11.5 24.5C11.28 24.5 11.07 24.45 10.88 24.37L10.88 24.37L5.38 21.87L5.38 21.87C4.86 21.63 4.5 21.11 4.5 20.5C4.5 19.67 5.17 19 6 19Z" />
		</g>
	</g>
</svg>