<svg xmlns="http://www.w3.org/2000/svg" viewBox="0 0 32 28" width="32" height="28">
	<style>
		tspan { white-space:pre }
		.shp0 { fill: #95e1d3 } 
	</style>
	<g id="service">
		<g id="3">
			<path id="COMPUTER / OK" class="shp0" d="M30 23L22.5 23L20.5 23L20.5 25.5L22.5 27.5L22.5 28L9.5 28L9.5 27.5L11.5 25.5L11.5 23L9.5 23L2 23C1.17 23 0.5 22.33 0.5 21.5L0.5 1.5C0.5 0.67 1.17 0 2 0L30 0C30.83 0 31.5 0.67 31.5 1.5L31.5 21.5C31.5 22.33 30.83 23 30 23ZM29.5 2L2.5 2L2.5 19L29.5 19L29.5 2ZM13 9C13.41 9 13.79 9.17 14.06 9.44L14.06 9.44L15 10.38L17.94 7.44L17.94 7.44C18.21 7.17 18.59 7 19 7C19.83 7 20.5 7.67 20.5 8.5C20.5 8.91 20.33 9.29 20.06 9.56L20.06 9.56L16.06 13.56L16.06 13.56C15.79 13.83 15.41 14 15 14C14.59 14 14.21 13.83 13.94 13.56L13.94 13.56L11.94 11.56L11.94 11.56C11.67 11.29 11.5 10.91 11.5 10.5C11.5 9.67 12.17 9 13 9Z" />
		</g>
	</g>
</svg>