<svg xmlns="http://www.w3.org/2000/svg" viewBox="0 0 32 31" width="32" height="31">
	<style>
		tspan { white-space:pre }
		.shp0 { fill: #95e1d3 } 
	</style>
	<g id="service">
		<g id="5">
			<path id="HOME" class="shp0" d="M32 16.5C32 17.33 31.33 18 30.5 18C30.1 18 29.75 17.84 29.48 17.59L29.48 17.6L16.04 4.16L16.04 4.16L16 4.12L16 4.12L2.55 17.57L2.55 17.57C2.28 17.83 1.91 18 1.5 18C0.67 18 0 17.33 0 16.5C0 16.07 0.18 15.69 0.46 15.42L14.92 0.96C15.19 0.68 15.58 0.5 16 0.5L16 0.5L16 0.5C16 0.5 16 0.5 16 0.5C16.03 0.5 16.05 0.5 16.08 0.5C16.08 0.5 16.09 0.5 16.09 0.5C16.11 0.5 16.14 0.51 16.16 0.51C16.16 0.51 16.16 0.51 16.16 0.51C16.53 0.55 16.86 0.72 17.1 0.98L17.1 0.98L23 6.88L23 5.5C23 4.67 23.67 4 24.5 4C25.33 4 26 4.67 26 5.5L26 9.88L31.6 15.48L31.59 15.48C31.84 15.75 32 16.1 32 16.5ZM29 19L29 23.5L29 25.5L29 29.5C29 30.33 28.33 31 27.5 31L24.5 31L24.5 19L18.5 19L18.5 31L4.5 31C3.67 31 3 30.33 3 29.5L3 25.5L3 23.5L3 19L16 6L29 19ZM13.5 19L7.5 19L7.5 25L13.5 25L13.5 19Z" />
		</g>
	</g>
</svg>