<svg xmlns="http://www.w3.org/2000/svg" viewBox="0 0 32 32" width="32" height="32">
	<style>
		tspan { white-space:pre }
		.shp0 { fill: #95e1d3 } 
	</style>
	<g id="service">
		<g id="6">
			<path id="IMAGE" class="shp0" d="M30.5 32L1.5 32C0.67 32 0 31.33 0 30.5L0 1.5C0 0.67 0.67 0 1.5 0L30.5 0C31.33 0 32 0.67 32 1.5L32 30.5C32 31.33 31.33 32 30.5 32ZM29 3L3 3L3 29L29 29L29 3ZM6.5 4.5L12 4.5L12 4.5C12.83 4.5 13.5 5.17 13.5 6C13.5 6.83 12.83 7.5 12 7.5L12 7.5L7.5 7.5L7.5 12L7.5 12C7.5 12.83 6.83 13.5 6 13.5C5.17 13.5 4.5 12.83 4.5 12L4.5 12L4.5 6.5L4.5 6.5L4.5 4.5L6.5 4.5L6.5 4.5ZM4.5 20L4.5 20C4.5 19.17 5.17 18.5 6 18.5C6.83 18.5 7.5 19.17 7.5 20L7.5 20L7.5 24.5L12 24.5L12 24.5C12.83 24.5 13.5 25.17 13.5 26C13.5 26.83 12.83 27.5 12 27.5L12 27.5L6.5 27.5L6.5 27.5L4.5 27.5L4.5 25.5L4.5 25.5L4.5 20ZM20 4.5L20 4.5L25.5 4.5L25.5 4.5L27.5 4.5L27.5 6.5L27.5 6.5L27.5 12L27.5 12C27.5 12.83 26.83 13.5 26 13.5C25.17 13.5 24.5 12.83 24.5 12L24.5 12L24.5 7.5L20 7.5L20 7.5C19.17 7.5 18.5 6.83 18.5 6C18.5 5.17 19.17 4.5 20 4.5ZM20 24.5L20 24.5L24.5 24.5L24.5 20L24.5 20C24.5 19.17 25.17 18.5 26 18.5C26.83 18.5 27.5 19.17 27.5 20L27.5 20L27.5 25.5L27.5 25.5L27.5 27.5L25.5 27.5L25.5 27.5L20 27.5L20 27.5C19.17 27.5 18.5 26.83 18.5 26C18.5 25.17 19.17 24.5 20 24.5Z" />
		</g>
	</g>
</svg>