<svg xmlns="http://www.w3.org/2000/svg" viewBox="0 0 32 32" width="32" height="32">
	<style>
		tspan { white-space:pre }
		.shp0 { fill: #95e1d3 } 
	</style>
	<g id="service">
		<g id="2">
			<path id="LINE GRAPH" class="shp0" d="M30.5 32L1.5 32C0.67 32 0 31.33 0 30.5L0 1.5C0 0.67 0.67 0 1.5 0L30.5 0C31.33 0 32 0.67 32 1.5L32 30.5C32 31.33 31.33 32 30.5 32ZM29 3L3 3L3 29L29 29L29 3ZM5.22 16.24L5.21 16.24L9.21 13.74L9.22 13.74C9.44 13.6 9.71 13.52 10 13.52C10.31 13.52 10.6 13.61 10.84 13.77L10.85 13.77L17.48 18.19L25.11 12.79C25.36 12.61 25.67 12.51 26 12.51C26.83 12.51 27.5 13.18 27.5 14.01C27.5 14.51 27.25 14.95 26.88 15.22L26.88 15.22L18.38 21.22L18.38 21.22C18.13 21.4 17.83 21.51 17.5 21.51C17.18 21.51 16.88 21.4 16.64 21.23L9.98 16.8L6.85 18.75C6.61 18.92 6.31 19.02 6 19.02C5.17 19.02 4.5 18.35 4.5 17.52C4.5 16.98 4.79 16.5 5.22 16.24Z" />
		</g>
	</g>
</svg>